# xmcd CD database file
#
# Track frame offsets:
#	150
#	17447
#	29511
#	48228
#	62399
#	79258
#	89967
#	108830
#	125170
#	135892
#	156994
#	172984
#	191730
#	209428
#	220156
#	233596
#
# Disc length: 3321 seconds
#
# Revision: 0
# Processed by: cddbd v1.5.2PL0 Copyright (c) Steve Scherf et al.
# Submitted via: CDex 1.51
#
DISCID=d70cf710
DTITLE=Rag Mama Rag - Shake it one more time
DYEAR=2005
DGENRE=Blues
TTITLE0=01 Traveling hobo's blues
TTITLE1=02 You can't get the stuff no more
TTITLE2=03 In the pines
TTITLE3=04 It hurts me too
TTITLE4=05 Let's get drunk again
TTITLE5=06 Shake it one more time
TTITLE6=07 Sitting on top of the World
TTITLE7=08 Waiting for my girl to call
TTITLE8=09 She moved through the fair
TTITLE9=10 Can't make somebody love you
TTITLE10=11 canicule blues
TTITLE11=12 Your cheating heart
TTITLE12=13 Swin against th tide
TTITLE13=14 Twelve gates to the city
TTITLE14=15 Beggars's waltz
TTITLE15=16 Shake shake Mama (cherry ball)
EXTD=YEAR: 2005
EXTT0=
EXTT1=
EXTT2=
EXTT3=
EXTT4=
EXTT5=
EXTT6=
EXTT7=
EXTT8=
EXTT9=
EXTT10=
EXTT11=
EXTT12=
EXTT13=
EXTT14=
EXTT15=
PLAYORDER=
